<svg width="63" height="60" viewBox="0 0 63 60" fill="none" xmlns="http://www.w3.org/2000/svg"><path d="M33.4981 58.9988C48.9617 58.9988 61.4975 46.4631 61.4975 30.9994C61.4975 15.5358 48.9617 3 33.4981 3C18.0344 3 5.49866 15.5358 5.49866 30.9994C5.49866 46.4631 18.0344 58.9988 33.4981 58.9988Z" fill="#E4E5E7"></path><path d="M4.5 19C2.8 19 1.5 20.3 1.5 22V46C1.5 47.7 2.8 49 4.5 49H8.5V56.1C8.5 57 9.7 57.5 10.3 56.7L18.4 49H30.5C32.2 49 33.5 47.7 33.5 46V22C33.5 20.3 32.2 19 30.5 19H4.5Z" fill="white"></path><path fill-rule="evenodd" clip-rule="evenodd" d="M16.884 26.8903C16.884 26.3986 16.4854 26 15.9937 26C15.502 26 15.1033 26.3986 15.1033 26.8903L15.1033 28.7799H11.3879C11.375 28.7796 11.362 28.7796 11.349 28.7799H9.32185C8.83013 28.7799 8.43152 29.1785 8.43152 29.6703C8.43152 30.162 8.83013 30.5606 9.32185 30.5606H10.6979C11.2916 32.4631 12.4872 35.0426 14.763 37.4916C13.5012 38.6049 11.9531 39.6545 10.0573 40.5392C9.61176 40.7471 9.41911 41.2769 9.62705 41.7225C9.83499 42.1681 10.3648 42.3607 10.8104 42.1528C12.9201 41.1683 14.6395 39.9923 16.0382 38.7419C17.4368 39.9923 19.1563 41.1683 21.266 42.1528C21.7116 42.3607 22.2414 42.1681 22.4493 41.7225C22.6572 41.2769 22.4646 40.7471 22.019 40.5392C20.1232 39.6545 18.5752 38.6049 17.3133 37.4916C19.5891 35.0426 20.7848 32.4631 21.3785 30.5606H22.6655C23.1572 30.5606 23.5559 30.162 23.5559 29.6703C23.5559 29.1785 23.1572 28.7799 22.6655 28.7799H20.7274C20.7144 28.7796 20.7014 28.7796 20.6884 28.7799H16.884V26.8903ZM16.0382 36.247C17.8812 34.2546 18.9281 32.182 19.5022 30.5606H12.5742C13.1482 32.182 14.1951 34.2546 16.0382 36.247Z" fill="#404145"></path><path d="M58.5 8H32.5C30.8 8 29.5 9.3 29.5 11V35C29.5 36.7 30.8 38 32.5 38H43.6L51.7 45.7C52.3 46.4 53.5 46 53.5 45.1V38H58.5C60.2 38 61.5 36.7 61.5 35V11C61.5 9.3 60.2 8 58.5 8Z" fill="#A6EACA" stroke="#404145" stroke-width="2" stroke-miterlimit="10" stroke-linecap="round"></path><path d="M25.5 19H4.5C2.8 19 1.5 20.3 1.5 22V46C1.5 47.7 2.8 49 4.5 49H8.5V56.1C8.5 57 9.7 57.5 10.3 56.7L18.4 49H30.5C32.2 49 33.5 47.7 33.5 46V42" stroke="#404145" stroke-width="2" stroke-miterlimit="10" stroke-linecap="round"></path><path d="M49.5 29V28.1C49.5 24.9 48.8 19.4 48.6 18.3C48.4 17.2 47.7 16 46 16C44.4 16 43.7 17.2 43.4 18.3C43.2 19.4 42.5 24.9 42.5 28.1V29" stroke="#404145" stroke-width="2" stroke-miterlimit="10" stroke-linecap="round"></path><path d="M42.7 25H49.3" stroke="#404145" stroke-width="2" stroke-miterlimit="10"></path><path d="M41.5 46V48" stroke="#C5C6C9" stroke-width="2" stroke-miterlimit="10"></path><path d="M41.5 50V52" stroke="#C5C6C9" stroke-width="2" stroke-miterlimit="10"></path><path d="M40.5 49H38.5" stroke="#C5C6C9" stroke-width="2" stroke-miterlimit="10"></path><path d="M44.5 49H42.5" stroke="#C5C6C9" stroke-width="2" stroke-miterlimit="10"></path><path d="M15.5 0V4" stroke="#C5C6C9" stroke-width="2" stroke-miterlimit="10"></path><path d="M15.5 8V12" stroke="#C5C6C9" stroke-width="2" stroke-miterlimit="10"></path><path d="M13.5 6H9.5" stroke="#C5C6C9" stroke-width="2" stroke-miterlimit="10"></path><path d="M21.5 6H17.5" stroke="#C5C6C9" stroke-width="2" stroke-miterlimit="10"></path><path d="M33.5 54V56" stroke="#C5C6C9" stroke-width="2" stroke-miterlimit="10"></path><path d="M33.5 58V60" stroke="#C5C6C9" stroke-width="2" stroke-miterlimit="10"></path><path d="M32.5 57H30.5" stroke="#C5C6C9" stroke-width="2" stroke-miterlimit="10"></path><path d="M36.5 57H34.5" stroke="#C5C6C9" stroke-width="2" stroke-miterlimit="10"></path></svg>